<?xml version="1.0" standalone="no"?>
<!DOCTYPE svg PUBLIC "-//W3C//DTD SVG 20010904//EN"
 "http://www.w3.org/TR/2001/REC-SVG-20010904/DTD/svg10.dtd">
<svg version="1.0" xmlns="http://www.w3.org/2000/svg"
 width="138" height="56" viewBox="0 0 5000.000000 3764.000000"
 preserveAspectRatio="xMidYMid meet">

<g transform="translate(0.000000,3764.000000) scale(0.100000,-0.100000)"
fill="#000000" stroke="none">
<path d="M14455 26053 c-91 -2 -306 -18 -380 -27 -34 -5 -113 -13 -195 -21
-141 -14 -384 -54 -585 -96 -397 -84 -663 -155 -1030 -275 -200 -65 -320 -109
-440 -159 -16 -7 -81 -34 -144 -59 -967 -394 -1970 -1033 -2896 -1844 -163
-143 -537 -493 -532 -498 2 -2 37 10 78 26 147 61 422 149 605 195 50 12 95
24 100 27 5 4 25 9 44 12 19 3 99 19 177 36 207 44 408 76 663 106 355 41 826
35 1200 -17 494 -69 934 -215 1349 -449 54 -30 91 -58 91 -67 0 -13 -3 -13
-16 -3 -8 8 -14 9 -13 4 4 -20 -2 -30 -18 -31 -29 -3 -78 -16 -83 -22 -9 -11
-74 -38 -109 -46 -18 -4 -41 -15 -51 -25 -10 -10 -22 -19 -28 -21 -9 -4 -21
-101 -22 -181 0 -25 -5 -38 -13 -38 -22 0 -45 -33 -41 -57 4 -21 -5 -28 -29
-24 -5 1 -6 -12 -2 -28 4 -20 1 -38 -10 -55 -10 -14 -14 -33 -11 -42 4 -11 2
-15 -7 -11 -15 6 -84 -70 -79 -86 2 -5 -4 -7 -13 -4 -8 4 -15 2 -15 -4 0 -6
-7 -17 -15 -25 -17 -17 -20 -44 -6 -44 5 0 12 6 14 13 3 6 6 0 6 -15 1 -32
-22 -38 -38 -10 -10 16 -10 16 -11 0 0 -15 -11 -18 -72 -19 -40 -1 -84 -2 -98
-3 -14 -1 -78 -3 -142 -4 -93 -2 -118 -5 -118 -16 0 -8 -7 -16 -15 -20 -8 -3
-15 -12 -15 -21 0 -8 -4 -15 -9 -15 -18 0 -7 -45 21 -88 15 -24 28 -48 28 -54
0 -12 79 -88 92 -88 4 0 8 -4 8 -10 0 -5 7 -10 15 -10 8 0 24 -9 35 -20 11
-11 24 -20 30 -20 5 0 7 -7 4 -15 -4 -9 0 -15 8 -15 8 0 28 -11 44 -25 16 -14
39 -25 50 -25 12 0 27 -6 33 -14 7 -8 26 -18 42 -21 16 -4 29 -10 29 -15 0 -4
8 -10 18 -14 9 -3 24 -10 32 -15 63 -42 153 -90 160 -86 5 3 24 -4 42 -15 18
-11 36 -20 40 -20 6 0 24 186 20 203 -4 13 57 -35 63 -51 3 -8 12 -12 21 -8
16 6 48 -17 37 -28 -4 -3 2 -7 13 -8 10 0 24 -2 29 -2 20 -2 125 -66 125 -76
0 -6 9 -10 20 -10 11 0 20 5 20 10 0 6 -5 10 -12 10 -6 0 -9 2 -6 5 3 3 13 3
22 -1 11 -4 13 -10 7 -18 -7 -8 1 -21 24 -42 19 -17 37 -29 39 -27 5 5 96 -35
96 -42 0 -2 -8 -2 -17 2 -10 3 -15 3 -11 -2 4 -4 20 -8 35 -9 22 -1 27 -5 25
-20 -3 -15 1 -17 22 -12 31 8 81 -15 96 -44 6 -11 22 -23 35 -26 14 -3 25 -11
25 -16 0 -6 6 -8 14 -5 19 7 66 -14 66 -30 0 -6 14 -14 30 -18 17 -4 28 -11
25 -16 -4 -5 1 -6 9 -3 17 6 56 -12 72 -34 7 -9 19 -13 33 -9 15 3 21 1 21
-10 0 -9 6 -13 14 -10 8 3 20 -1 26 -9 7 -8 19 -14 26 -14 8 0 14 -5 14 -12 0
-6 3 -9 6 -5 12 12 34 -22 34 -52 l0 -31 -85 0 c-50 0 -85 -4 -85 -10 0 -5 7
-10 15 -10 8 0 15 -3 15 -7 0 -5 24 -21 53 -37 28 -16 56 -35 60 -43 17 -28
27 -11 27 48 l0 60 58 -2 c37 -1 64 -8 77 -19 28 -23 53 -31 58 -17 2 8 5 8
11 -1 4 -7 2 -12 -3 -12 -6 0 -11 -4 -11 -10 0 -5 7 -10 15 -10 9 0 18 -7 21
-15 4 -8 12 -15 20 -15 8 0 14 -6 14 -14 0 -8 8 -13 17 -12 10 0 18 -5 18 -11
0 -7 3 -13 8 -13 4 0 16 0 28 0 15 0 19 5 15 16 -3 9 -2 12 5 9 6 -4 8 -14 5
-22 -4 -9 5 -20 24 -31 16 -9 30 -20 30 -24 0 -5 7 -8 16 -8 9 0 12 5 8 12 -4
7 -3 8 4 4 6 -4 9 -12 7 -19 -3 -7 8 -20 25 -29 16 -9 30 -24 30 -32 0 -9 6
-13 13 -10 7 2 34 -16 59 -41 26 -25 49 -45 53 -45 3 0 21 -15 38 -33 18 -18
47 -44 64 -57 18 -14 33 -31 33 -37 0 -7 9 -13 21 -13 11 0 18 -4 15 -9 -3 -5
1 -12 10 -15 21 -8 24 -8 21 3 -2 8 3 11 17 11 3 0 1 -13 -4 -29 -7 -26 -5
-30 16 -35 13 -4 28 -15 34 -26 6 -12 16 -17 22 -14 7 5 9 2 5 -9 -4 -10 -2
-16 6 -14 7 1 11 -4 9 -12 -2 -8 3 -11 12 -8 9 4 18 2 21 -3 9 -15 27 -12 19
3 -4 6 -3 8 1 4 13 -11 15 -37 4 -37 -6 0 -7 -5 -4 -10 4 -6 11 -8 16 -5 16
10 33 -6 18 -17 -10 -7 -8 -8 7 -3 15 4 24 0 28 -10 3 -9 11 -13 17 -10 6 4
13 -2 16 -14 3 -12 9 -21 14 -21 5 0 9 -60 9 -133 l0 -134 30 -26 c29 -26 34
-27 154 -27 96 0 128 -3 139 -15 8 -8 17 -11 21 -8 3 4 6 1 6 -6 0 -8 7 -11
15 -7 8 3 15 0 15 -5 0 -6 -9 -9 -20 -6 -12 3 -20 0 -20 -8 0 -8 9 -11 25 -7
15 2 25 0 25 -7 0 -6 -7 -11 -15 -11 -10 0 -2 -12 19 -31 20 -17 40 -28 45
-25 5 3 7 -3 4 -13 -3 -13 -11 -18 -21 -14 -15 4 -15 3 0 -10 10 -8 14 -18 10
-22 -4 -5 1 -5 11 -2 11 4 17 1 17 -9 0 -11 6 -14 16 -10 8 3 13 2 10 -2 -3
-5 13 -25 35 -46 21 -21 39 -44 39 -50 0 -6 4 -5 9 3 7 10 13 11 30 2 28 -15
27 -34 -1 -25 -19 6 -18 3 7 -19 21 -17 32 -22 37 -14 5 7 8 8 8 1 0 -5 -5
-15 -12 -22 -9 -9 -7 -11 10 -7 15 2 23 -3 28 -18 4 -12 24 -42 46 -67 50 -57
58 -68 58 -75 0 -3 -5 -3 -12 1 -7 4 -8 3 -4 -5 4 -6 11 -9 15 -7 11 7 62 -51
94 -106 15 -27 34 -48 42 -48 8 0 15 -6 15 -13 0 -8 9 -25 21 -38 11 -13 18
-31 16 -41 -5 -19 15 -42 27 -31 4 4 9 -3 12 -15 4 -12 15 -24 26 -28 11 -3
17 -11 15 -18 -3 -7 8 -18 24 -25 16 -7 28 -16 27 -19 -1 -4 2 -14 5 -22 4 -8
8 -42 9 -75 l3 -60 75 -3 c41 -2 81 -9 88 -14 8 -7 12 -7 12 1 0 7 5 9 10 6 6
-4 8 -11 5 -16 -6 -9 8 -13 33 -10 21 3 82 -20 82 -30 0 -6 15 -9 33 -7 24 2
31 -1 30 -12 -2 -11 5 -16 25 -15 16 0 26 -5 25 -12 -2 -7 6 -17 16 -23 16 -8
18 -7 14 13 -4 22 -4 22 12 2 9 -11 25 -19 37 -17 13 2 18 0 13 -8 -4 -7 -1
-11 6 -9 30 4 48 -2 44 -13 -8 -20 45 -44 93 -43 23 1 42 -2 42 -5 0 -4 41
-13 91 -20 49 -7 86 -16 81 -19 -6 -3 17 -7 50 -8 33 -2 66 -7 73 -13 8 -7 14
-7 17 -1 4 13 89 -10 86 -24 -5 -27 15 -176 24 -182 12 -7 163 -4 348 6 117 7
291 31 370 51 46 12 267 30 305 25 35 -4 65 3 65 15 0 5 -8 11 -17 13 -16 4
-16 5 -1 6 13 1 18 16 24 81 l7 81 86 -7 c50 -4 123 -2 175 5 61 8 135 10 230
4 112 -6 131 -9 91 -14 -27 -4 2 -5 65 -3 74 2 104 0 85 -5 -29 -8 -28 -9 13
-10 23 0 42 4 42 9 0 6 33 9 83 8 70 -1 76 -2 37 -8 -49 -8 -47 -9 18 -15 24
-2 40 1 36 6 -9 15 9 10 41 -11 17 -11 35 -20 40 -20 6 1 -1 7 -15 15 -14 8
-19 14 -11 15 8 0 29 -10 47 -22 30 -21 33 -27 39 -101 l7 -79 30 6 c16 3 27
2 24 -3 -3 -5 38 -14 92 -21 53 -7 102 -17 108 -22 6 -4 19 -6 27 -2 19 7 89
-14 82 -25 -2 -5 6 -6 19 -4 13 3 27 0 30 -6 4 -6 16 -11 27 -11 10 0 19 -5
19 -11 0 -5 5 -7 10 -4 6 3 10 2 10 -3 0 -5 19 -12 41 -15 23 -3 45 -10 48
-16 4 -6 23 -13 43 -15 20 -3 45 -9 55 -15 10 -5 39 -15 66 -22 26 -6 47 -15
47 -20 0 -5 7 -6 15 -3 8 4 15 1 15 -5 0 -6 7 -11 15 -11 8 0 15 -4 15 -8 0
-5 17 -15 38 -23 20 -8 66 -29 101 -48 37 -19 83 -35 107 -36 23 -2 47 -6 53
-9 7 -4 11 20 13 68 l3 75 80 -35 c92 -41 112 -46 120 -33 4 5 11 7 16 3 6 -4
5 -11 -2 -21 -11 -12 -9 -13 14 -8 17 5 27 3 27 -4 0 -6 9 -11 20 -11 11 0 20
-4 20 -10 0 -5 9 -10 20 -10 11 0 20 -4 20 -10 0 -5 7 -10 15 -10 8 0 15 -4
15 -10 0 -5 12 -13 27 -16 15 -4 34 -13 41 -21 7 -7 19 -13 26 -13 8 0 19 -7
26 -15 7 -8 16 -12 21 -9 5 3 9 1 9 -4 0 -4 25 -19 55 -31 30 -13 55 -27 55
-32 0 -8 31 -27 113 -66 20 -10 37 -24 37 -31 0 -9 6 -12 15 -8 8 3 15 1 15
-4 0 -6 5 -10 10 -10 6 0 19 -9 30 -20 l20 -20 -125 -1 c-143 -2 -141 -2 -151
-11 -4 -5 5 -8 20 -8 15 0 25 -4 22 -8 -3 -5 4 -16 14 -25 13 -11 20 -12 23
-4 2 8 9 6 21 -6 10 -10 31 -24 47 -32 16 -9 29 -20 29 -25 0 -6 7 -10 15 -10
8 0 15 -4 15 -8 0 -5 11 -14 24 -22 13 -7 27 -22 30 -33 3 -12 8 -18 11 -15 4
3 18 -5 32 -18 14 -13 30 -24 34 -24 14 0 49 -34 49 -47 0 -7 9 -13 21 -13 14
0 19 -5 16 -14 -4 -11 -1 -13 10 -9 9 3 21 0 27 -8 6 -8 21 -20 34 -27 l22
-12 0 100 c0 90 2 99 18 93 9 -4 21 -12 25 -20 4 -7 14 -13 21 -13 7 0 25 -9
40 -21 14 -11 31 -17 37 -13 7 4 9 3 6 -3 -7 -11 45 -60 86 -82 15 -8 74 -61
132 -118 76 -75 103 -108 99 -121 -5 -14 -4 -15 5 -2 9 13 18 8 55 -32 24 -26
42 -49 38 -52 -3 -3 1 -6 9 -6 18 0 85 -60 81 -72 -2 -6 4 -8 13 -5 10 4 15 1
15 -10 0 -9 3 -14 6 -10 9 9 34 -19 34 -38 0 -11 5 -15 15 -11 8 3 15 1 15 -4
0 -6 6 -10 13 -10 14 0 47 -35 47 -50 0 -6 7 -10 15 -10 8 0 15 -7 15 -15 0
-8 5 -15 11 -15 5 0 17 -16 24 -35 8 -19 23 -39 34 -44 18 -10 31 -20 104 -82
l30 -26 -128 -7 c-71 -4 -133 -10 -138 -13 -4 -3 7 -16 25 -29 18 -14 36 -34
40 -45 5 -14 14 -19 23 -15 11 4 15 0 13 -12 -2 -11 3 -16 15 -14 10 2 17 -3
17 -13 0 -8 7 -15 15 -15 8 0 14 -3 13 -7 -2 -5 0 -9 5 -10 13 -5 47 -43 47
-53 0 -5 7 -10 15 -10 22 0 95 -69 89 -85 -3 -7 -1 -16 5 -20 8 -4 11 33 11
119 0 71 4 126 9 126 5 0 17 -18 27 -40 10 -22 22 -40 26 -40 5 0 8 -6 7 -12
-3 -28 2 -37 16 -32 11 5 13 2 8 -12 -4 -11 -3 -15 5 -10 6 4 17 -2 24 -14 7
-11 19 -20 26 -20 8 0 12 -6 9 -13 -5 -13 17 -39 26 -30 3 3 11 2 17 -2 9 -6
9 -9 0 -15 -9 -6 -7 -13 6 -28 10 -12 22 -18 27 -15 6 3 7 1 4 -4 -4 -6 3 -19
15 -29 14 -12 19 -14 13 -4 -4 8 -4 12 0 7 5 -4 17 -24 27 -45 16 -32 17 -33
13 -9 -4 19 -2 26 5 22 5 -3 10 -13 10 -21 0 -8 5 -14 11 -14 6 0 9 -7 6 -14
-3 -8 6 -28 21 -44 15 -16 40 -48 56 -71 16 -23 35 -40 42 -37 13 5 28 -20 19
-34 -2 -4 4 -15 15 -25 11 -10 20 -24 20 -30 0 -7 7 -12 16 -11 9 0 19 -5 22
-13 3 -8 0 -11 -7 -7 -6 4 -11 3 -11 -3 0 -6 10 -16 23 -22 23 -13 37 -28 37
-43 0 -5 -8 -2 -17 5 -13 11 -13 9 2 -12 11 -14 26 -26 35 -25 9 1 14 -7 13
-17 0 -11 11 -26 28 -36 29 -18 129 -142 129 -161 0 -5 5 -10 10 -10 6 0 10
-4 10 -10 0 -6 -40 -10 -101 -10 l-100 0 21 -30 c12 -17 18 -35 14 -42 -4 -7
-4 -10 1 -6 11 10 38 -29 30 -42 -3 -6 -1 -10 5 -10 6 0 8 -5 5 -10 -3 -6 1
-10 10 -10 9 0 13 -4 10 -10 -3 -5 -2 -10 4 -10 5 0 19 -17 32 -37 12 -21 29
-46 38 -56 15 -18 16 -18 22 0 5 12 7 8 6 -15 0 -20 7 -37 18 -46 10 -7 15
-17 12 -23 -4 -5 3 -19 13 -31 11 -12 20 -28 20 -37 0 -8 4 -15 9 -15 5 0 11
-8 15 -17 3 -10 11 -27 18 -37 74 -111 98 -152 94 -163 -3 -7 -1 -13 5 -13 6
0 8 -4 4 -9 -3 -5 2 -17 11 -25 8 -9 13 -16 10 -16 -3 0 3 -9 14 -20 11 -11
20 -27 20 -35 0 -8 9 -19 20 -25 19 -10 20 -7 21 55 1 36 3 70 4 75 1 6 3 45
4 88 l1 77 25 -49 c13 -26 29 -54 36 -62 6 -7 8 -18 4 -24 -3 -5 1 -10 11 -10
14 0 14 -3 4 -15 -11 -13 -10 -14 4 -9 9 3 16 1 16 -5 0 -6 -6 -11 -12 -11 -7
0 -3 -7 8 -15 30 -20 51 -74 34 -85 -9 -6 -7 -11 10 -20 12 -6 19 -14 16 -17
-3 -3 2 -12 10 -20 8 -8 12 -18 9 -23 -3 -5 -1 -11 5 -15 6 -4 8 -11 5 -16 -4
-5 1 -12 9 -15 9 -3 16 -12 16 -18 0 -7 9 -22 21 -35 17 -18 69 -128 69 -146
0 -3 -42 -5 -94 -5 l-94 0 28 -57 c16 -32 26 -61 24 -65 -3 -5 1 -8 8 -8 9 0
9 -3 -2 -10 -13 -8 -13 -10 2 -10 17 0 48 -46 48 -70 0 -6 6 -18 13 -25 30
-35 35 -43 29 -50 -4 -4 0 -12 9 -18 9 -7 19 -22 23 -35 4 -12 12 -22 17 -22
11 0 12 -46 2 -53 -5 -2 -2 -2 6 0 8 2 11 -2 7 -12 -3 -8 -1 -15 4 -15 6 0 10
-12 10 -27 0 -16 7 -37 15 -47 8 -11 15 -30 15 -43 0 -13 4 -23 10 -23 5 0 7
-7 4 -15 -4 -8 -1 -15 5 -15 6 0 11 -9 11 -19 0 -11 5 -23 10 -26 6 -3 10 -15
10 -25 0 -10 4 -20 9 -22 5 -2 11 -10 13 -18 2 -8 5 -17 8 -20 6 -6 40 -79 40
-86 0 -3 -6 -2 -12 1 -7 4 -5 0 5 -8 10 -8 20 -25 22 -37 2 -13 12 -48 21 -79
10 -31 16 -62 15 -68 -1 -7 3 -13 8 -13 6 0 7 -7 4 -17 -4 -11 -3 -14 5 -9 7
4 14 -3 18 -19 6 -25 8 -25 101 -25 60 0 92 -4 88 -10 -3 -5 -1 -10 5 -10 7 0
10 -7 6 -15 -3 -8 -1 -15 4 -15 5 0 7 -7 4 -15 -4 -9 0 -15 10 -15 9 0 16 -5
16 -11 0 -8 6 -7 18 2 16 13 16 13 2 -5 -11 -14 -12 -20 -3 -23 7 -2 9 -11 6
-19 -3 -8 1 -14 11 -14 8 0 18 -11 22 -25 4 -14 9 -23 12 -20 11 11 40 -50 29
-62 -6 -9 -6 -13 3 -13 8 0 10 -8 7 -21 -4 -16 -3 -18 8 -9 9 8 14 7 18 -4 4
-9 2 -18 -3 -21 -5 -3 -5 -16 2 -30 6 -14 13 -23 16 -20 7 7 32 -15 32 -27 0
-6 -8 -4 -17 3 -15 12 -16 12 -8 -1 5 -8 17 -21 27 -28 16 -12 17 -16 6 -30
-11 -13 -11 -14 1 -7 11 6 13 4 8 -8 -3 -9 1 -18 10 -21 13 -5 13 -9 2 -24 -7
-9 -10 -14 -5 -10 12 10 39 -20 33 -35 -3 -7 3 -24 13 -37 12 -16 15 -29 9
-36 -6 -7 -4 -16 6 -24 18 -15 20 -40 3 -40 -7 0 -5 -5 5 -11 9 -5 17 -15 17
-20 0 -6 -6 -7 -12 -3 -10 6 -10 4 -2 -7 7 -8 13 -80 16 -182 3 -92 8 -170 12
-174 3 -3 31 -8 61 -11 30 -2 55 -9 55 -14 0 -5 5 -6 10 -3 6 3 10 1 10 -5 0
-6 4 -8 10 -5 6 3 7 -1 4 -10 -5 -13 -9 -13 -23 -3 -14 12 -15 11 -2 -5 11
-13 17 -15 28 -6 11 9 12 9 8 -4 -4 -8 -1 -18 6 -23 8 -5 10 -3 4 7 -5 8 -4
10 0 6 13 -11 15 -37 4 -37 -6 0 1 -10 15 -22 18 -17 69 -134 182 -418 85
-217 159 -398 162 -402 4 -4 84 182 177 414 152 377 199 478 224 478 4 0 8 -7
8 -15 0 -9 -6 -14 -13 -11 -16 6 -28 -10 -15 -18 5 -4 22 5 38 20 15 14 23 23
17 20 -7 -3 -17 1 -23 8 -10 11 -8 16 8 21 12 3 25 4 31 0 6 -3 7 1 4 10 -6
14 2 16 52 13 l59 -3 6 -85 c3 -47 6 -77 7 -67 1 10 6 15 12 12 6 -3 7 1 4 9
-3 9 -1 16 5 16 7 0 17 14 22 30 6 17 14 30 18 30 7 0 31 44 31 55 0 3 -22 5
-50 5 l-50 0 0 84 c0 71 3 88 22 112 12 16 25 31 28 34 4 3 13 20 21 38 8 17
17 32 21 32 5 0 8 6 8 13 0 7 10 24 22 37 13 13 23 29 23 35 0 5 6 20 13 33 7
13 15 33 18 45 2 12 8 23 14 25 5 2 10 8 10 14 0 16 52 120 67 136 7 7 13 25
13 38 0 14 4 22 10 19 6 -3 10 4 10 18 0 13 9 33 20 45 11 12 20 25 19 29 -3
20 2 34 11 28 6 -3 10 -1 10 6 0 7 7 20 15 29 8 9 17 30 19 47 1 16 13 40 25
52 13 13 20 29 17 37 -3 9 1 14 12 14 13 0 14 2 4 8 -9 7 -10 15 -3 35 6 15
13 27 17 27 3 0 4 -7 0 -15 -3 -8 -1 -15 5 -15 6 0 9 15 7 33 l-3 32 93 3 c91
3 92 3 92 28 0 13 7 27 15 30 8 4 15 12 15 20 0 8 4 22 9 32 5 9 19 50 32 90
13 39 26 72 30 72 3 0 9 18 13 40 3 22 11 40 18 40 6 0 8 3 5 6 -3 4 -1 16 5
28 7 11 13 28 15 37 5 34 23 70 32 65 5 -4 7 3 4 14 -3 11 0 20 6 20 6 0 10 3
9 8 -4 14 14 52 24 52 6 0 8 3 5 7 -4 3 2 20 13 38 11 18 17 34 15 37 -3 3 5
16 18 30 13 14 21 31 19 38 -3 7 3 19 14 27 12 9 14 13 4 13 -9 0 -6 8 9 21
18 17 20 23 10 30 -11 6 -10 9 3 14 15 6 32 39 29 58 -1 4 7 15 17 25 11 11
22 38 26 61 3 23 11 39 16 36 6 -4 10 14 10 44 0 39 4 51 15 51 9 0 15 10 16
23 1 21 1 21 8 -3 7 -25 8 -24 15 8 4 17 11 32 16 32 4 0 20 26 36 58 16 31
32 59 37 60 4 2 7 8 7 13 0 5 22 44 49 87 26 42 49 82 51 87 1 6 6 19 10 30 4
11 9 25 11 30 1 6 7 15 12 20 9 11 48 82 73 135 9 19 28 51 43 70 15 19 33 47
40 63 8 15 18 27 23 27 4 0 8 7 8 15 0 9 6 18 14 21 13 5 30 40 27 57 -1 5 2
6 7 3 5 -3 15 4 23 16 8 11 19 26 24 32 6 7 15 21 22 31 6 11 16 19 23 17 6
-1 8 2 5 8 -4 6 3 20 16 31 12 10 19 19 15 19 -4 0 2 10 14 22 11 12 20 25 20
30 0 4 9 17 20 28 11 11 20 25 20 30 0 6 -43 10 -107 10 -99 0 -159 13 -125
27 6 2 12 11 12 18 0 8 11 26 25 41 14 15 25 31 25 36 0 20 76 117 90 115 8
-1 19 8 25 21 5 12 13 22 16 22 3 0 4 12 1 28 -4 23 -3 25 10 15 12 -11 18 -9
32 6 10 11 19 28 21 38 1 10 7 17 13 16 5 -1 31 26 58 60 27 34 41 56 33 49
-14 -10 -16 -9 -12 11 2 12 15 27 28 33 20 10 23 9 18 -5 -3 -12 -1 -11 11 3
9 11 16 26 16 34 0 7 4 11 9 7 5 -3 13 0 17 6 4 8 3 9 -4 5 -16 -10 -15 17 0
32 7 7 18 12 26 12 12 0 12 -3 1 -17 -11 -13 -8 -13 12 2 16 12 23 23 16 26
-5 4 -7 15 -2 25 5 14 9 15 12 6 4 -10 13 -5 32 16 15 16 34 31 42 34 12 4 12
7 0 22 -8 9 -10 20 -6 24 4 4 10 1 12 -6 4 -10 8 -10 19 -1 12 10 14 -12 14
-145 l0 -157 53 62 c28 34 73 88 98 120 26 32 49 56 51 53 3 -2 18 12 34 33
66 88 293 315 307 306 6 -3 7 -1 3 6 -10 15 13 43 27 34 5 -3 7 -1 3 5 -3 5 0
13 6 15 7 3 -9 6 -37 6 -84 2 -185 13 -185 22 0 4 17 25 38 46 79 84 167 186
170 199 2 8 8 14 13 14 5 0 9 7 9 16 0 10 6 14 14 11 10 -4 12 0 9 14 -4 13 0
19 11 19 9 0 22 12 28 26 7 16 18 24 28 21 11 -3 16 2 16 17 -1 15 6 22 22 24
13 2 26 11 30 20 9 25 28 42 47 42 8 0 21 12 27 28 7 15 27 41 44 57 17 17 37
41 44 53 9 18 17 22 35 18 15 -4 28 0 36 11 13 15 12 15 -8 4 -29 -15 -29 -8
1 23 26 29 41 34 32 10 -3 -9 -2 -12 5 -9 5 4 7 15 4 26 -6 19 0 23 35 20 10
0 11 1 3 5 -20 9 -15 26 6 19 10 -3 24 1 31 10 11 13 10 14 -4 9 -9 -3 -16 -2
-16 4 0 8 22 22 36 22 2 0 4 -58 4 -128 0 -106 3 -129 15 -129 8 0 12 4 9 8
-6 10 31 30 40 21 4 -3 4 1 1 10 -4 11 3 24 24 39 17 12 28 26 25 30 -3 5 1 6
9 4 7 -3 29 8 48 25 19 16 42 32 52 36 9 3 17 10 17 15 0 6 4 8 8 5 5 -3 16 4
25 15 10 11 22 17 27 14 5 -3 14 4 20 15 6 11 17 20 25 20 8 0 15 4 15 9 0 5
8 12 18 15 24 9 69 36 60 36 -5 0 0 8 10 18 9 10 26 16 37 14 11 -3 17 -1 13
3 -13 14 40 47 63 40 12 -4 19 -3 16 1 -4 8 11 29 23 31 22 2 50 17 50 26 0 7
4 6 10 -3 8 -13 10 -12 10 3 0 12 11 20 33 24 17 4 36 6 40 5 5 -1 6 2 3 7 -4
5 3 12 14 16 11 3 20 11 20 16 0 6 8 9 18 7 9 -2 22 0 27 4 6 5 21 17 34 28
l24 20 -204 1 c-112 1 -194 4 -181 6 12 2 22 9 22 15 0 5 7 8 15 4 18 -7 20
10 3 18 -7 3 0 4 16 0 24 -4 27 -3 18 8 -9 11 -5 18 18 31 16 10 32 17 37 16
4 -1 17 -1 28 1 l20 1 -20 9 c-17 7 -17 9 -2 9 9 1 17 5 17 10 0 5 20 14 45
20 25 6 45 16 45 22 0 5 5 7 12 3 6 -4 8 -3 4 4 -9 15 22 31 47 24 16 -4 19
-2 14 11 -4 11 -1 17 8 17 8 0 15 6 15 13 0 8 4 7 10 -3 8 -12 10 -12 11 5 0
11 3 14 6 8 2 -7 9 -13 14 -13 4 0 6 7 3 15 -6 15 7 21 20 8 10 -11 36 -12 36
-2 0 5 -6 9 -12 10 -7 1 -2 4 12 8 15 4 28 3 33 -3 4 -7 9 -3 13 11 3 12 13
24 21 28 14 5 14 3 2 -11 -13 -16 -12 -16 9 -5 13 7 21 15 18 18 -3 3 2 12 12
19 22 17 29 17 29 2 3 -92 18 -215 27 -220 16 -11 28 -10 21 2 -6 9 8 14 27
11 5 0 7 2 7 7 -3 19 2 25 11 12 7 -11 10 -11 10 -2 0 7 5 10 10 7 6 -3 10 -1
10 5 0 6 5 8 10 5 6 -3 10 0 10 8 0 18 24 29 45 21 9 -4 15 0 15 10 0 18 36
40 55 32 8 -3 15 0 17 5 3 9 21 15 50 18 4 1 5 8 2 16 -4 8 -1 15 5 15 6 0 11
-4 11 -10 0 -12 19 -9 36 5 7 6 8 12 2 16 -5 3 0 9 11 12 12 3 19 1 15 -4 -8
-14 13 -11 28 4 7 8 21 13 31 11 9 -1 17 4 17 12 0 8 10 14 23 14 12 0 41 9
62 21 47 24 211 79 237 79 10 0 18 4 18 9 0 9 132 47 190 55 19 2 49 7 66 11
l32 7 7 119 c8 140 10 142 110 136 36 -2 66 1 68 7 2 5 23 11 48 13 24 2 66 6
93 9 39 5 47 4 41 -7 -5 -8 3 -5 16 7 13 11 32 19 42 16 18 -4 18 -4 0 -18
-16 -12 -10 -13 47 -9 36 3 79 8 95 11 17 3 66 7 110 8 44 2 92 8 107 14 20 8
28 8 31 -1 3 -9 8 -9 18 1 9 8 53 12 146 12 l133 0 0 -38 c0 -22 3 -73 6 -115
6 -66 9 -76 28 -80 12 -2 30 -8 41 -12 14 -5 16 -4 7 3 -9 6 14 8 65 6 53 -2
70 -1 53 5 -22 8 -20 9 18 10 23 1 42 -3 42 -9 0 -15 47 -12 53 3 4 9 6 9 6 0
2 -21 39 -35 61 -23 14 7 20 7 20 0 0 -5 17 -9 38 -9 37 1 37 1 7 9 -27 7 -28
8 -5 8 26 1 75 -16 52 -17 -7 -1 -10 -6 -7 -12 4 -6 14 -8 22 -5 8 3 24 1 35
-5 14 -8 23 -8 31 0 14 14 84 14 92 1 3 -5 39 -11 78 -12 68 -1 69 -1 22 -7
l-50 -6 65 -7 c36 -4 70 -2 76 3 14 11 76 0 68 -12 -3 -5 1 -9 10 -9 8 0 22
-3 32 -7 12 -4 15 -3 10 5 -11 18 69 15 104 -3 l30 -16 0 122 0 121 31 -7 c17
-4 50 -8 72 -10 23 -2 42 -4 42 -5 0 -1 30 -4 67 -6 37 -2 78 -8 91 -13 29
-11 166 19 160 35 -5 16 48 28 57 13 6 -9 34 -3 109 20 56 18 106 29 113 25 8
-5 9 0 5 15 -5 19 -3 20 9 10 12 -10 25 -8 64 12 28 13 50 30 50 38 0 8 3 11
6 8 4 -3 16 -1 27 4 16 9 17 13 6 20 -10 6 -8 9 9 9 28 0 72 22 135 66 26 19
49 34 52 34 3 0 5 -65 5 -145 0 -94 4 -145 10 -145 6 0 22 11 36 25 14 14 29
25 34 25 6 0 10 5 10 10 0 6 6 10 13 10 7 0 21 11 31 25 10 14 24 25 30 25 6
0 28 16 49 36 23 22 44 34 53 30 9 -3 12 -2 9 5 -4 6 2 13 14 16 12 3 21 9 21
14 0 5 22 24 50 41 27 18 50 38 50 45 0 7 15 26 33 42 l32 31 -61 0 c-33 0
-109 3 -168 7 l-106 6 17 26 c9 14 38 49 63 76 26 28 63 68 81 90 19 21 58 64
86 95 29 30 53 63 53 73 0 9 6 17 13 17 17 0 72 72 69 90 -2 12 -1 12 6 2 7
-10 17 -3 43 30 19 24 46 54 62 66 15 13 27 30 27 38 0 8 4 14 9 14 5 0 29 21
53 46 23 25 58 61 76 79 17 18 32 38 32 45 0 6 4 9 9 6 5 -3 29 14 53 38 25
24 50 45 56 47 6 2 35 27 64 54 29 28 64 56 76 63 l22 12 0 -172 0 -171 23 21
c13 12 27 19 31 15 4 -4 4 0 1 9 -4 9 -2 19 4 23 6 3 11 1 11 -4 0 -22 19 -9
76 50 33 34 67 69 77 78 9 8 17 19 17 24 0 5 14 20 30 34 17 13 28 29 24 34
-3 5 1 9 8 9 7 0 33 20 57 45 24 25 40 45 35 45 -4 0 7 11 26 25 l33 25 -179
2 -179 3 23 23 c12 12 20 27 17 32 -3 5 0 7 8 4 10 -3 99 78 258 237 134 133
282 276 329 318 47 41 96 86 110 100 21 22 89 72 239 179 14 10 18 10 18 0 5
-125 17 -308 21 -308 2 0 23 17 45 37 23 20 42 32 44 26 2 -6 18 3 34 18 17
16 38 29 46 29 12 0 13 3 4 13 -8 11 -6 13 12 13 13 -1 21 4 20 12 -2 6 4 12
13 12 9 0 27 9 41 20 14 11 34 20 44 20 11 0 19 5 19 11 0 5 5 7 10 4 6 -3 10
-1 10 5 0 6 5 8 10 5 6 -3 10 -2 10 4 0 13 75 52 84 44 3 -4 6 -1 6 5 0 7 3
11 8 10 9 -2 46 14 52 23 5 6 35 22 172 90 32 16 65 29 73 29 8 0 15 5 15 10
0 6 11 8 25 4 18 -4 25 -2 25 8 0 24 43 56 80 61 19 2 -112 5 -292 5 -211 1
-328 6 -328 12 0 5 3 9 8 8 4 -2 42 16 84 40 42 23 82 42 88 42 6 0 8 5 5 10
-3 6 1 10 9 10 20 0 210 90 214 101 2 5 8 6 13 3 6 -3 19 2 29 11 11 10 33 18
49 19 16 1 27 4 25 8 -4 6 94 58 109 58 4 0 16 9 27 20 11 11 28 20 38 20 10
0 26 10 37 22 12 14 20 18 23 10 2 -8 10 -7 27 4 l23 15 7 -170 7 -170 34 17
c19 8 34 19 34 24 0 4 7 8 16 8 8 0 30 11 47 24 18 13 47 27 64 31 18 3 35 11
38 16 3 4 21 16 40 25 19 9 35 20 35 25 0 5 10 9 23 10 13 0 16 3 8 6 -20 8
56 33 102 33 20 0 37 5 37 11 0 5 4 8 9 4 5 -3 13 0 16 5 4 7 25 9 51 7 48 -5
84 1 84 13 0 5 -10 6 -22 3 -17 -3 -19 -2 -8 5 15 10 116 24 158 23 13 -1 20
4 17 9 -3 6 -1 10 4 10 6 0 11 -4 11 -10 0 -5 5 -10 10 -10 6 0 10 7 10 15 0
8 4 15 9 15 5 0 16 3 25 6 11 4 16 1 16 -11 0 -13 3 -15 13 -7 6 5 27 13 45
17 26 5 32 11 27 25 -4 13 1 20 17 26 12 3 33 20 47 35 14 16 31 29 37 29 6 0
18 8 27 18 15 16 17 52 17 299 l0 280 -152 6 c-83 4 -188 7 -234 7 l-82 0 -7
30 c-11 50 -89 172 -116 182 -9 4 -23 20 -30 36 -8 18 -18 28 -26 25 -7 -3
-36 18 -63 46 -27 28 -58 51 -69 51 -10 0 -22 7 -25 16 -3 8 -11 12 -17 8 -12
-7 -111 35 -105 45 2 3 -7 7 -20 7 -13 1 -53 16 -89 33 l-65 32 0 62 c0 34 -3
112 -6 172 l-7 111 89 41 c855 395 1886 470 3014 217 288 -64 746 -204 915
-279 30 -13 55 -21 55 -16 0 8 -244 242 -431 413 -1380 1257 -2921 2090 -4494
2429 -346 74 -675 123 -1080 161 -188 17 -1063 18 -1190 1 -49 -7 -128 -15
-175 -18 -355 -24 -909 -130 -1227 -235 -316 -104 -459 -181 -1003 -540 -223
-147 -544 -358 -715 -470 -170 -112 -481 -316 -690 -453 -209 -138 -600 -395
-870 -572 -269 -176 -618 -405 -775 -508 -1069 -706 -2385 -1567 -2394 -1567
-3 0 -4 815 -3 1810 1 1111 -1 1810 -7 1810 -15 0 -117 -60 -166 -97 -199
-151 -568 -538 -908 -950 -69 -84 -122 -140 -130 -137 -8 2 -251 4 -542 4
l-529 0 -144 173 c-310 371 -624 706 -804 859 -95 81 -210 158 -234 158 -16 0
-17 -120 -20 -1804 -2 -992 -7 -1808 -11 -1811 -4 -4 -1325 868 -2935 1937
-1610 1070 -2973 1970 -3029 2001 -206 115 -432 201 -709 271 -660 165 -1281
222 -2160 199z m-1878 -3125 c-3 -8 -6 -5 -6 6 -1 11 2 17 5 13 3 -3 4 -12 1
-19z m-397 -539 c0 -6 -4 -7 -10 -4 -5 3 -10 11 -10 16 0 6 5 7 10 4 6 -3 10
-11 10 -16z m-110 -99 c0 -5 -4 -10 -10 -10 -5 0 -10 5 -10 10 0 6 5 10 10 10
6 0 10 -4 10 -10z m2196 -1851 c19 -22 19 -22 -3 -8 -13 8 -23 17 -23 21 0 12
6 9 26 -13z m20034 -1763 c0 -11 -19 -15 -25 -6 -3 5 1 10 9 10 9 0 16 -2 16
-4z m-18102 -31 c1 -1 -5 -5 -15 -7 -10 -3 -24 1 -32 9 -10 12 -8 13 16 7 15
-4 29 -8 31 -9z m1785 -12 c-13 -2 -33 -2 -45 0 -13 2 -3 4 22 4 25 0 35 -2
23 -4z m16204 -39 c-3 -3 -12 -4 -19 -1 -8 3 -5 6 6 6 11 1 17 -2 13 -5z
m-172 -64 c-3 -5 -16 -10 -28 -9 -21 0 -21 1 -2 9 28 12 37 12 30 0z m-90 -20
c-3 -5 -12 -10 -18 -10 -7 0 -6 4 3 10 19 12 23 12 15 0z m-11315 -2400 c0 -5
-2 -10 -4 -10 -3 0 -8 5 -11 10 -3 6 -1 10 4 10 6 0 11 -4 11 -10z m4880 -150
c0 -5 -5 -10 -11 -10 -5 0 -7 5 -4 10 3 6 8 10 11 10 2 0 4 -4 4 -10z m-30
-39 c0 -6 -4 -13 -10 -16 -5 -3 -10 1 -10 9 0 9 5 16 10 16 6 0 10 -4 10 -9z
m-4173 -1093 c-3 -8 -6 -5 -6 6 -1 11 2 17 5 13 3 -3 4 -12 1 -19z m43 -58 c0
-5 -5 -10 -11 -10 -5 0 -7 5 -4 10 3 6 8 10 11 10 2 0 4 -4 4 -10z m3350 -230
l0 -140 -82 0 c-75 1 -81 2 -64 15 14 11 16 15 5 15 -11 0 -12 2 -1 9 8 4 13
12 13 17 -2 20 11 43 22 41 6 -1 13 6 15 16 2 11 12 27 23 38 22 22 25 45 7
52 -10 4 -9 8 2 16 11 8 16 6 19 -6 2 -12 8 -7 17 16 8 18 11 37 8 42 -3 5 0
9 5 9 7 0 11 -48 11 -140z m-2360 -1595 c7 -9 8 -15 2 -15 -5 0 -12 7 -16 15
-3 8 -4 15 -2 15 2 0 9 -7 16 -15z"/>
<path d="M38896 22520 c12 -5 25 -13 29 -19 3 -6 12 -11 18 -11 7 1 1 10 -12
20 -13 11 -31 20 -40 19 -11 0 -10 -3 5 -9z"/>
<path d="M38880 22336 l0 -176 109 0 109 0 7 61 7 61 -48 49 c-44 44 -47 51
-36 70 12 19 11 19 -8 9 -22 -12 -27 -1 -7 20 10 12 9 12 -5 1 -23 -18 -55 -7
-39 13 8 9 8 17 2 20 -5 3 -11 1 -13 -4 -2 -6 -12 -3 -23 7 -59 53 -55 63 -55
-131z"/>
<path d="M12075 22390 c-3 -5 -1 -10 4 -10 6 0 11 5 11 10 0 6 -2 10 -4 10 -3
0 -8 -4 -11 -10z"/>
<path d="M39040 22376 c0 -9 5 -16 10 -16 6 0 10 4 10 9 0 6 -4 13 -10 16 -5
3 -10 -1 -10 -9z"/>
<path d="M12030 22349 c0 -5 5 -7 10 -4 6 3 10 8 10 11 0 2 -4 4 -10 4 -5 0
-10 -5 -10 -11z"/>
<path d="M11976 22304 c-9 -9 -14 -19 -11 -22 3 -3 13 2 22 11 9 9 14 19 11
22 -3 3 -13 -2 -22 -11z"/>
<path d="M38350 22316 c0 -2 7 -9 15 -16 13 -11 14 -10 9 4 -5 14 -24 23 -24
12z"/>
<path d="M38400 22235 c0 -5 5 -17 10 -25 5 -8 10 -10 10 -5 0 6 -5 17 -10 25
-5 8 -10 11 -10 5z"/>
<path d="M11915 22211 c-6 -11 9 -23 19 -14 9 9 7 23 -3 23 -6 0 -12 -4 -16
-9z"/>
<path d="M39140 22210 c0 -5 5 -10 10 -10 6 0 10 5 10 10 0 6 -4 10 -10 10 -5
0 -10 -4 -10 -10z"/>
<path d="M12540 21519 c0 -5 5 -7 10 -4 6 3 10 8 10 11 0 2 -4 4 -10 4 -5 0
-10 -5 -10 -11z"/>
<path d="M37510 21005 c-8 -9 -8 -15 -2 -15 12 0 26 19 19 26 -2 2 -10 -2 -17
-11z"/>
<path d="M13658 20883 c7 -3 16 -2 19 1 4 3 -2 6 -13 5 -11 0 -14 -3 -6 -6z"/>
<path d="M14815 19800 c3 -5 10 -10 16 -10 5 0 9 5 9 10 0 6 -7 10 -16 10 -8
0 -12 -4 -9 -10z"/>
<path d="M15166 19425 c4 -8 11 -15 16 -15 6 0 5 6 -2 15 -7 8 -14 15 -16 15
-2 0 -1 -7 2 -15z"/>
<path d="M15310 19231 c0 -6 4 -13 10 -16 6 -3 7 1 4 9 -7 18 -14 21 -14 7z"/>
<path d="M15506 18985 c9 -14 18 -25 20 -25 2 0 -2 11 -8 25 -6 14 -15 25 -20
25 -5 0 -1 -11 8 -25z"/>
<path d="M15454 18815 c11 -8 31 -25 45 -38 48 -42 51 -42 51 7 l0 46 -57 0
c-53 -1 -56 -2 -39 -15z"/>
<path d="M15820 18766 c0 -2 7 -7 16 -10 8 -3 12 -2 9 4 -6 10 -25 14 -25 6z"/>
<path d="M33818 18463 c7 -3 16 -2 19 1 4 3 -2 6 -13 5 -11 0 -14 -3 -6 -6z"/>
<path d="M32833 18293 c9 -2 25 -2 35 0 9 3 1 5 -18 5 -19 0 -27 -2 -17 -5z"/>
<path d="M22157 16359 c7 -7 15 -10 18 -7 3 3 -2 9 -12 12 -14 6 -15 5 -6 -5z"/>
<path d="M23470 14750 c0 -5 5 -10 11 -10 5 0 7 5 4 10 -3 6 -8 10 -11 10 -2
0 -4 -4 -4 -10z"/>
<path d="M24380 12729 c0 -5 5 -7 10 -4 6 3 10 8 10 11 0 2 -4 4 -10 4 -5 0
-10 -5 -10 -11z"/>
<path d="M24400 12686 c0 -2 8 -10 18 -17 15 -13 16 -12 3 4 -13 16 -21 21
-21 13z"/>
<path d="M24430 12176 c0 -2 7 -17 15 -32 l15 -29 0 33 c0 22 -5 32 -15 32 -8
0 -15 -2 -15 -4z"/>
<path d="M25365 12069 c-4 -6 -5 -12 -2 -15 2 -3 7 2 10 11 7 17 1 20 -8 4z"/>
</g>
</svg>
